<svg width="772" height="1328" viewBox="0 0 772 1328" fill="none" xmlns="http://www.w3.org/2000/svg">
<g id="avatarSLau">
    <!-- CHAIR -->

    <g id="CHAIR">
        <path id="Vector" d="M319.585 1116.85H475.045" stroke="#656565" stroke-width="5" stroke-miterlimit="10" stroke-linecap="round"/>
        <path id="Vector_2" d="M265.681 776.883L538.893 1220.17" stroke="#656565" stroke-width="5" stroke-miterlimit="10" stroke-linecap="round"/>
        <path id="Vector_3" d="M528.949 776.883L255.737 1220.17" stroke="#656565" stroke-width="5" stroke-miterlimit="10" stroke-linecap="round"/>
        <path id="Vector_4" d="M585.549 740.01C585.549 743.788 577.067 747.337 562.162 750.421C530.093 757.063 468.283 761.565 397.315 761.565C326.347 761.565 264.537 757.063 232.489 750.411C217.573 747.327 209.101 743.778 209.101 740C209.101 728.103 293.374 718.446 397.335 718.446C501.296 718.446 585.549 728.103 585.549 740.01Z" fill="#E1AA69" stroke="#FFB000" stroke-width="5" stroke-miterlimit="10"/>
        <path id="Vector_5" d="M585.549 740.01V760.831C585.549 772.729 501.266 782.386 397.315 782.386C293.364 782.386 209.081 772.739 209.081 760.831V740.01C209.081 743.788 217.563 747.337 232.469 750.421C264.537 757.064 326.337 761.565 397.315 761.565C468.293 761.565 530.093 757.064 562.161 750.411C577.067 747.337 585.549 743.788 585.549 740.01Z" fill="#997850" stroke="#C9893D" stroke-width="5" stroke-miterlimit="10"/>
    </g>

    <!-- RIGHT LEG -->
    <g id="rightLeg">
        <path id="Vector_6" d="M476.257 1145.53C470.967 1153.24 440.46 1172.19 442.061 1180.88C443.662 1189.56 471.753 1214.82 473.731 1228.24C475.71 1241.65 472.946 1261.79 484.819 1267.72C496.691 1273.65 559.645 1274.03 569.937 1267.72C580.228 1261.4 569.141 1241.27 558.054 1236.92C546.967 1232.58 517.285 1183.24 518.995 1152.85L476.257 1145.53Z" fill="#262523"/>
        <path id="Vector_7" d="M532.031 1181.15C532.031 1181.15 518.836 1169.75 498.6 1181.15" stroke="white" stroke-width="4" stroke-linecap="round" stroke-linejoin="round"/>
        <path id="Vector_8" d="M537.003 1195.03C537.003 1195.03 523.808 1183.63 503.572 1195.03" stroke="white" stroke-width="4" stroke-linecap="round" stroke-linejoin="round"/>
        <path id="Vector_9" d="M542.969 1208.91C542.969 1208.91 529.774 1197.51 509.538 1208.91" stroke="white" stroke-width="4" stroke-linecap="round" stroke-linejoin="round"/>
        <path id="rightLeg_2" d="M550.334 1095.23C557.065 1086.09 632.865 767.728 622.505 742.118C597.722 705.709 578.874 707.126 539.187 721.213C506.691 732.746 486.373 793.41 486.924 794.231C488.147 796.055 445.219 915.774 471.43 1076.93C475.1 1099.49 543.601 1104.37 550.334 1095.23Z" fill="#495686"/>
        <path id="Vector_10" d="M529.167 1124.23C528.034 1127.72 522.654 1144.15 518.995 1152.85C515.495 1161.15 471.892 1158.33 476.237 1145.52C479.946 1134.61 480.006 1119.74 479.936 1115.56C487.076 1118.38 507.321 1125.47 529.167 1124.23Z" fill="#DA9747"/>
        <path id="Vector_11" d="M530.003 1124.18L542.184 1095.25C542.184 1095.25 502.638 1100.15 476.257 1081.98L477.251 1114.42C477.251 1114.42 504.676 1126.87 530.003 1124.18Z" fill="#403E6D"/>
    </g>
    <g id="leftLeg">
        <path id="Vector_12" d="M365.776 1064.96C374.099 1069.7 391.908 1070.23 395.08 1082.39C398.252 1094.56 380.821 1142.72 383.595 1159.73C386.369 1176.73 386.121 1213.04 357.861 1216.96C326.588 1221.31 302.833 1210.65 302.833 1198.8C302.833 1186.95 321.049 1173.51 323.784 1153.38C326.518 1133.25 333.728 1089.83 333.728 1089.83L365.776 1064.96Z" fill="#262523"/>
        <path id="Vector_13" d="M325.892 1117.98C325.892 1117.98 339.087 1106.58 359.323 1117.98" stroke="white" stroke-width="4" stroke-linecap="round" stroke-linejoin="round"/>
        <path id="Vector_14" d="M322.909 1131.87C322.909 1131.87 336.104 1120.46 356.339 1131.87" stroke="white" stroke-width="4" stroke-linecap="round" stroke-linejoin="round"/>
        <path id="Vector_15" d="M319.926 1145.75C319.926 1145.75 333.121 1134.34 353.356 1145.75" stroke="white" stroke-width="4" stroke-linecap="round" stroke-linejoin="round"/>
        <path id="leftLeg_2" d="M100 729.287C100 714.158 112.199 704.785 128.5 689.646C147 685.146 171.078 674.423 197.732 703.931L239.46 754.876C280.508 813.423 337.952 986.048 339.175 999.463C340.398 1012.88 318.99 1038.45 287.19 1041.51C255.39 1044.57 100 840.262 100 729.287Z" fill="#495686"/>
        <path id="Vector_16" d="M347.798 1030.82C347.798 1030.82 362.216 1060.62 365.776 1064.96C369.336 1069.3 349.548 1091.4 333.718 1089.83L308.421 1055.83C308.421 1055.83 335.557 1050.77 347.798 1030.82Z" fill="#DA9747"/>
        <path id="Vector_17" d="M338.61 1004.69L348.792 1030.82C348.792 1030.82 332.992 1052.69 306.432 1056.82L288.235 1038.14C288.235 1038.14 322.312 1034.05 338.61 1004.69Z" fill="#403E6D"/>
    </g>
    
    <!-- LAP -->
    <g id="lap">
        <path id="thighs" d="M486.371 771.755C485.147 769.931 400.129 724.204 383.613 724.799C369.615 725.303 277.411 748.166 249.608 755.13L196.3 767.69C196.3 767.69 108.12 783.24 104.839 767.69C101.192 750.397 97.4965 726.435 102.226 717.678C106.956 708.92 120.04 694.133 129.295 685.538C180.05 638.402 284.444 596.959 284.444 596.959C284.444 596.959 431.7 579.807 469.625 599.933C522.257 627.873 609.344 697.97 619.705 723.58C627.36 742.5 621.733 761.456 612.837 783.194C594.825 827.205 486.535 772.001 486.371 771.755Z" fill="#495686"/>
    </g>
    <!-- LEFT ARM -->
    <g id="leftArm">
        <path id="Vector_18" d="M327.222 653.934C321.186 656.591 303.158 651.614 301.508 648.976C299.857 646.339 297.53 629.94 279.721 624.309C266.973 620.273 261.186 616.258 261.405 603.716C224.345 591.094 125.793 553.656 121.328 511.152C118.345 482.796 148.087 401.684 160.506 369.372C163.758 360.935 165.816 355.819 165.816 355.819C194.464 379.614 231.644 392.027 231.644 392.027L228.571 400.425L192.704 498.362C209.032 504.539 268.495 577.353 277.762 588.784C297.083 592.512 317.776 605.907 320.192 613.125C322.728 620.69 333.437 651.187 327.222 653.934Z" fill="#DA9747"/>
        <path id="Vector_19" d="M178.296 326.055C178.296 326.055 190.228 305.86 223.539 318.123C249.393 327.64 249.393 352.329 249.393 352.329L228.581 400.395C208.942 397.302 176.685 389.737 160.516 369.342C163.758 360.915 178.296 326.055 178.296 326.055Z" fill="#C9893D"/>
    </g>
    <!-- RIGHT ARM -->
    <g id="rightArm">
        <path id="Vector_20" d="M613.749 512.243C611.502 553.884 532.291 592.552 490.517 610.101C489.135 618.727 483.457 622.504 472.539 625.31C449.778 631.16 451.916 646.131 450.743 648.986C448.903 653.537 426.45 658.722 421.051 654.935C417.839 652.665 426.908 624.15 432.068 614.126C435.28 607.89 456.798 596.081 470.908 590.995C470.908 590.995 542.503 504.47 552.307 499.592C552.307 499.592 525.827 427.214 514.75 401.168C513.169 397.43 511.896 394.654 511.071 393.177C511.071 393.177 550.846 381.279 577.753 358.178C577.753 358.178 580.189 364.236 583.779 374.2C594.588 404.202 616.026 469.699 613.749 512.243Z" fill="#DA9747"/>
        <path id="Vector_21" d="M583.769 374.191C578.201 380.09 561.276 392.87 514.74 401.159C513.149 397.431 511.876 394.645 511.051 393.167C511.051 393.167 490.527 344.397 511.051 324.567C548.2 294.327 577.743 358.168 577.743 358.168C577.743 358.168 580.169 364.216 583.769 374.191Z" fill="#C9893D"/>
    </g>
    <!-- TORSO -->
    <g id="torso">
        <path id="Vector_22" d="M456.549 220.966C472.638 232.755 516.351 253.367 543.557 272.354C565.502 287.672 585.082 354.646 585.082 354.646C585.082 354.646 554.525 385.718 503.195 397.904C503.195 397.904 473.861 488.127 462.864 593.501C462.864 593.501 368.747 628.202 283.808 593.501C283.808 593.501 249.582 400.343 245.306 399.173C241.03 398.003 177.609 378.6 156.807 347.517C156.807 347.517 181.338 277.053 214.779 263.242C251.113 248.231 299.529 227.658 316.373 218.626C324.965 213.946 456.549 220.966 456.549 220.966Z" fill="#262523"/>
        <path id="NECK" d="M419.062 162.469C419.062 162.469 417.431 198.162 456.549 220.966C456.549 220.966 417.769 249.124 385.661 285.293C385.661 285.293 351.256 243.343 316.403 218.537C316.403 218.537 350.619 191.718 350.619 162.479L419.062 162.469Z" fill="#C9893D"/>
    </g>
    <!-- LAPTOP -->
    <g id="laptop">
        <path id="laptop_2" d="M519.264 683.615H231.345L182.88 493.67C182.131 491.078 181.998 488.348 182.49 485.697C182.983 483.045 184.087 480.544 185.717 478.391C187.346 476.239 189.455 474.493 191.878 473.294C194.3 472.095 196.97 471.474 199.674 471.481H550.975C553.676 471.48 556.341 472.105 558.758 473.307C561.175 474.509 563.28 476.255 564.904 478.407C566.529 480.559 567.63 483.058 568.121 485.706C568.611 488.355 568.477 491.081 567.73 493.67L519.264 683.615Z" fill="#E3E3E3" stroke="#88879E" stroke-width="7" stroke-miterlimit="10"/>
    </g>
    <!-- LAPTOP DETAIL  -->
    <g id="laptopDetail">
        <path id="Vector_23" d="M510.534 681.831H240.066L194.534 503.366C191.55 492.926 189.442 480.562 200.331 480.562H550.269C561.157 480.562 559.079 492.946 556.066 503.366L510.534 681.831Z" fill="#88879E"/>
        <path id="Vector_24" d="M391.766 596.475H358.843C357.738 596.474 356.665 596.106 355.794 595.429C354.922 594.752 354.302 593.805 354.03 592.737L350.102 571.589C350.006 571.25 349.989 570.893 350.054 570.547C350.119 570.2 350.263 569.873 350.476 569.591C350.689 569.31 350.965 569.081 351.281 568.924C351.598 568.767 351.946 568.685 352.3 568.684H398.309C398.663 568.685 399.012 568.767 399.328 568.924C399.645 569.081 399.92 569.31 400.133 569.591C400.346 569.873 400.491 570.2 400.556 570.547C400.62 570.893 400.604 571.25 400.507 571.589L396.559 592.767C396.283 593.826 395.663 594.764 394.796 595.434C393.929 596.105 392.864 596.471 391.766 596.475Z" stroke="#E3E3E3" stroke-width="6" stroke-linejoin="round"/>
    </g>

    <!-- HEAD -->
    <g id="head">
        <path id="HEAD" d="M452.353 142.818C448.426 147.954 441.336 157.581 437.915 164.492C431.83 197.399 411.067 219.171 384.746 219.171C361.936 219.171 346.523 193.671 339.423 169.965C339.256 169.535 339.116 169.094 339.005 168.646C337.245 162.112 327.709 149.114 322.917 142.868C322.537 142.371 322.268 141.799 322.128 141.19C321.989 140.58 321.981 139.949 322.106 139.336C322.232 138.724 322.487 138.146 322.855 137.64C323.222 137.134 323.694 136.713 324.239 136.404C330.086 133.062 333.119 135.491 334.71 138.664C333.865 114.958 334.849 90.082 348.691 89.9432C364.6 89.7945 417.511 88.7535 426.679 91.8072C434.564 94.4247 439.765 105.44 439.785 140.647C441.028 136.681 444.011 132.388 451.031 136.404C451.568 136.713 452.033 137.133 452.396 137.634C452.759 138.136 453.011 138.709 453.136 139.315C453.261 139.921 453.256 140.546 453.121 141.15C452.986 141.754 452.724 142.323 452.353 142.818Z" fill="#DA9747"/>

        <path id="hair" d="M451.747 98.3013C442.3 110.717 438.88 143.393 438.88 143.393C438.88 143.393 443.404 96.1399 425.068 96.6555C416.347 96.8935 398.807 109.079 380.441 107.096C365.187 105.45 346.135 84.8074 338.289 98.3013C333.944 108.642 334.252 124.873 334.909 141.569C330.225 120.203 331.279 105.142 325.959 96.6555C314.783 90.8752 311.004 79.8627 313.53 67.2809C317.825 45.9941 334.909 40.0155 334.909 40.0155C360.762 29.761 344.852 31.401 376.175 17.2117C409.814 1.97281 435.648 17.3478 438.939 35.7099C403.023 41.007 434.843 48.9387 444.289 57.3662C453.736 65.7937 451.747 77.8004 451.747 98.3013Z" fill="#262523"/>
    </g>
    <!-- HAIR ACCENT -->
    <g id="hairAccent">
        <path d="M402.028 128.256C411.475 104.461 401.574 92.9662 391.587 90.0847" stroke="#262523" stroke-width="3" stroke-miterlimit="10"/>
    </g>
</g>
</svg>
