<svg width="500" height="500" viewBox="0 0 500 500" fill="#81c687" xmlns="http://www.w3.org/2000/svg">
<path d="M138.6 467.2L137.8 467.6L139.4 467.2H138.6ZM140.6 466.4C140.6 467.2 140.6 467.2 139.8 466.8C139 466.4 139.4 467.2 139 467.2C144.2 468.4 142.2 463.2 140.6 466.4ZM133.8 470C133 470 133.4 469.2 132.6 469.2C132.2 469.2 132.2 470 132.2 470.4C132.6 472 128.6 468.4 130.2 471.2C131.4 473.6 126.6 470 126.2 472.4C127.4 474.4 129.8 472 131.4 472C131.4 471.6 139.8 469.2 137.8 467.6C137.4 468.8 136.6 470 135.4 469.2C133 467.6 135.4 470 133.8 470ZM179.4 444.8C179.4 444.8 179 444.8 178.2 444.8C175.8 443.2 178.6 448.8 175.8 446C175 444 173.8 450 173 448.4C172.2 446.8 170.6 449.6 171.8 448.8C172.2 448.8 172.2 448.8 172.2 449.2C171.8 450.4 168.6 448.4 169.4 450.4C169.8 451.6 168.2 452 167.4 451.2C166.6 450.4 166.6 450.4 167 451.2C167.8 453.2 163.8 450.8 165 453.2C165.8 454.4 163.4 454.8 163.8 454C163.8 453.6 163.8 453.2 163 453.2C161.8 453.2 163 455.2 161.8 454.4C161 454 161.8 456.8 160.6 454.8C159.4 453.2 161 457.2 159.4 456.8C159 456.8 159 456.8 159 456.4C159.4 455.6 157.4 455.6 157.8 456.8C158.2 458 155.8 456.8 156.2 458.4C156.2 459.2 155.8 459.2 155.4 459.2C151.8 457.2 154.6 460.8 152.6 460C151.8 459.6 151 460 150.6 460C149.8 461.6 152.2 459.2 151.4 460.8C151.4 460.8 150.6 461.2 149.8 460.8C148.2 460 150.6 463.2 149 462C145.8 460.4 147.8 462.8 145.8 462.8C145 462.8 141.4 464.4 143 465.6C150.6 464.8 161.4 456.4 169 451.6C171.4 451.6 175 447.2 175.8 446.8C179 446.8 181 442 183.8 441.2C184.2 441.2 183.8 439.2 185.4 439.2C187.4 438.8 188.2 435.6 184.6 438.4C181 444.4 179 442 179.4 444.8ZM213.4 291.6C213.4 291.2 214.2 291.2 214.2 291.2C215.4 292 213.4 288.4 215 290.4C215.8 291.6 216.2 291.6 216.2 290.8C218.2 287.2 223.8 278 225 274.4C226.6 274.4 228.6 266.8 233.4 260C235.8 254 223.4 273.2 221 273.6C220.2 275.6 212.2 290.4 210.6 289.6C210.2 290 210.6 290.4 211 291.2C211.8 292.4 212.6 292.4 213.4 291.6ZM278.6 188.4H277C286.2 181.2 267.8 180.8 249 207.6C237 222.4 239.4 218.4 242.6 212.8C244.2 212.4 240.6 210.8 241.4 210C242.2 209.6 241.8 211.6 242.6 210.8C242.6 208.8 249.8 200.4 244.2 205.2C243.4 205.2 247 201.6 246.6 202.8C245.8 205.2 249.8 200.4 249 200C247.8 201.2 246.2 203.2 248.6 199.2C252.2 194.8 252.6 195.2 255.4 193.2C253 195.2 251.8 196.4 250.2 198.4C247.8 202.4 255.4 193.6 257.8 190.4C259.4 189.2 263.8 185.2 263.8 185.2C260.2 186.4 265 182.8 265 183.6C264.6 184.4 265 184.4 265.4 184.4C266.6 184.4 265.4 182.8 266.6 182.4C268.2 182 267 183.6 268.6 182.8C269.8 182 271.4 182.8 271.4 182C271.4 180.8 269.8 182.8 270.6 180.8C272.2 176.8 263 182.8 261.4 182.4C258.6 185.6 249.8 194.8 245.4 199.2C244.2 198.8 251.4 191.6 250.2 191.2C250.2 191.2 250.2 190.8 251 190.8C252.6 191.2 250.6 189.2 252.6 190C253.4 190.4 253.8 189.2 253 188.8C252.6 188.8 252.6 188.4 253 188.8C257 187.6 255.8 182.8 251 188.8C247.4 192.4 247.4 192.4 247.8 190.4C249 187.6 249 184.4 251 181.6C252.6 182 250.2 178 250.2 177.2C251.8 177.6 252.6 177.2 252.6 176.8C251.8 176.8 254.6 174 253.4 174.4C252.6 175.2 250.6 171.6 252.2 172.4C253 172.8 252.6 170.4 253.4 170.4C255.8 171.2 251.8 167.2 253.4 167.6C255.4 167.2 255.4 159.6 256.6 160C257 157.6 258.2 151.6 259.4 149.2C260.2 149.2 259.8 148.8 259.4 148.8C258.2 148.8 260.2 143.2 260.6 142.4C261.4 141.6 260.2 140 261 138.8C261.4 138.4 261.4 138 261.4 137.6C262.2 134 263 129.2 263.8 125.6C264.6 124.4 265 118.8 266.2 119.6C266.6 120 267 117.6 265.8 118.8C262.2 121.6 267.8 115.2 265.8 116.4C265 116.8 265 114.8 265.8 115.2C265.8 115.2 266.2 115.2 266.6 114.8C266.6 114.8 267 118 267.4 115.2C267.8 113.6 263.8 112.4 266.6 112.4C268.6 113.6 268.6 108.4 266.6 110.4C264.2 112 267.4 108.4 267.8 109.2C268.6 109.6 267 106.8 268.2 106.8C271 100 266.2 97.6 266.6 96C267 96 268.6 99.2 269 96.4C269 94.8 267 95.6 267 94.4C266.6 93.2 267.8 93.2 268.6 94.4C269 94.8 269.4 94.4 269.4 94.4C269.4 93.6 267 91.6 267.8 91.6C268.6 91.6 268.6 89.2 267.8 89.2C265.4 86.8 264.2 72.4 258.2 70.4C257 68.8 257.8 74.4 257 74.4C256.6 74 256.6 73.6 256.6 73.2C257.4 72.4 255 70.8 255.4 72.4C256.2 74 251.8 73.6 252.6 72C251.8 70.4 258.2 68.4 258.2 67.6C257.8 66.4 250.2 72.4 250.2 68.4C251 68.8 251.4 67.2 250.6 67.6C248.2 67.6 251.4 59.6 253.8 62.8C255.4 62 252.2 61.6 253.8 61.2C254.6 60.8 255.4 60.8 255.4 60.8C257.8 61.2 254.2 54.4 253.8 54.4C252.6 54.4 250.2 53.6 252.2 53.2C255.4 52 248.2 52.8 249 53.6C249.4 54.4 249 54.4 248.6 54C245 54.4 247.8 56 246.6 52.4C246.2 52 246.2 51.6 246.6 51.6C247 50.8 244.6 50.4 248.2 50C252.6 49.6 250.2 47.2 247.4 46.8C242.6 46.4 247 41.2 242.6 40.4C241.4 39.6 244.2 38.4 241.4 37.6C240.6 36.4 237.8 36.4 235.8 37.6C234.6 39.2 238.6 36.8 237.8 38.4C235.8 40.4 235 38.4 233 39.2C231 40 232.2 41.6 230.6 41.2C228.6 41.2 229.4 40 228.2 40C226.6 40.4 227.8 36.8 226.6 38.8C225.4 40.4 225.4 36.8 229.4 36.8C229.4 36.8 236.2 31.6 232.6 33.2C232.2 33.2 226.6 36.4 227.4 34.8C227.8 33.6 226.2 34 226.6 33.2C227 32.8 226.6 32.8 225.8 32.8C225.4 33.2 225.4 33.6 225.8 34C227.4 34.4 222.2 34.8 225.4 35.6C225.8 35.6 225.8 35.6 225.4 35.6C225.8 37.2 222.6 36 221.8 36.8C221.8 37.2 221 37.6 220.6 37.6C219.4 37.6 220.2 39.2 218.6 38.4C217.4 38.4 213.8 41.6 212.6 40C213 39.6 217.4 36.8 218.6 35.6C211.4 39.6 200.2 50.4 193.4 54.8C191 54.4 192.6 57.6 189.8 59.2C187 60.4 188.6 62.4 187 61.6C184.6 60 187 62.4 185 62.8C184.2 63.2 184.2 62.8 184.6 62.4C184.2 60.8 182.6 66.4 181.8 66.4C181.4 66.4 181 66.4 181.4 65.6C181.4 65.6 181.4 64.8 181 64.8C180.2 64.4 181 67.2 180.2 67.2C177.8 65.6 179 70 176.2 71.2C170.6 73.2 175 74.8 170.2 76C169.8 76.4 169.8 76.4 170.2 76C172.6 76 169.8 78 170.2 79.2C170.6 79.6 170.6 79.6 170.2 79.6C169 78.8 170.2 78 169.4 77.6C168.2 77.2 168.6 80 167.4 80.4C165.8 81.2 166.6 83.6 164.2 83.2C163.8 82.8 163.8 83.2 163.8 83.6C165 84.8 159.8 84.8 161.8 83.6C163.8 81.6 160.2 84.4 159 84C158.2 84 159 86 157.8 85.6C156.6 85.2 158.2 87.2 157 86.4C156.2 85.6 156.6 89.2 154.6 88.4C154.6 88.4 161.8 80.8 161 80.4C161 79.6 162.6 79.6 163.4 79.6C163.8 78.8 166.6 76 166.2 74.8C166.6 74.8 169 73.6 169 71.6C172.2 70.8 171 70 173.4 66.8C177 64.4 183.4 54.8 182.6 59.2C183.4 58.8 185.4 56 186.6 54.8C186.2 55.2 183.4 58 183 57.2C182.6 56.4 187 53.6 186.2 53.2C186.2 52.8 186.2 52.4 186.6 52.8C192.2 47.6 211.4 29.2 220.2 26C195 30 156.6 75.2 136.6 100.4C129.4 108.4 130.6 110.8 129 112C127.4 111.6 127 112.8 128.2 114.8C129 116.8 128.2 117.6 127 116.4C126.6 115.2 123.8 118 125.4 117.2C126.2 116.8 126.6 117.2 126.6 118C126.2 119.2 123.8 119.2 124.6 121.6C125 121.6 125 121.6 124.6 121.6C122.2 120.8 123.4 124 122.2 124C121 123.6 120.2 126.8 119.8 126.8C119.4 126.8 119.4 126.4 119.8 126C120.2 124.8 118.2 126.4 119 126.8C119.8 126.8 115.4 130 117.4 129.6C118.6 128.8 117.4 131.2 117 130.8C115.8 130.4 116.6 133.2 115.4 132.8C93.8 165.2 67.4 217.6 79.8 258.8C82.2 268.4 89.8 275.2 93 284C95.4 290.4 104.6 310.4 107.8 309.2C109.4 310 111.8 315.6 112.2 314C111.4 312.8 113.4 314 113 314.4C113 316 119.8 320.8 122.2 321.2C123 322 125.4 324.4 126.6 323.6C126.6 322.8 131 326 128.2 324.8C125.8 323.2 126.6 324.8 129.4 326.4C131.8 327.6 132.6 327.6 131 326C129.4 324.8 133.8 327.2 133 327.6C132.6 328.4 133 328.4 133.8 328C135 326.8 137.4 330 138.6 329.2C138.6 328.8 138.6 329.2 138.6 329.6C137.8 330.4 139.8 330 139 330.8C138.6 332.4 140.2 330.8 139.8 330.4C139.8 328 141.4 332 142.2 331.6C149.4 334 157 338.4 163.8 339.2C168.2 342 177 343.2 185 346C185.4 346.4 185.4 346.4 185.8 346.4C187 345.6 193.8 349.6 195.4 348.4C196.2 348 194.6 350.4 195.8 350.4C195.8 353.2 182.2 359.6 180.2 362C177.8 362.4 175.8 365.2 173.8 366C173.4 366 173 366 172.6 366C171.4 367.2 166.6 370.4 165.8 370C165.8 370 162.2 372.4 162.6 373.6C163 374.4 160.2 372 161 372.8C161.8 374.4 158.6 374.4 158.2 375.6C158.2 377.2 154.2 376.4 154.2 377.2C154.6 378 153 377.6 153.4 378.4C154.2 379.2 152.2 380.4 152.6 379.2C154.2 377.6 150.2 379.2 151 380C151.4 380.4 151 380.4 150.2 379.6C149.8 378.4 145.8 382 146.6 382.4C147 382.4 146.2 382.4 145 382.4C141.4 382 143 384.8 142.2 384.4C138.6 385.2 121.8 392.4 119.4 394.4C121.4 394.4 128.2 390.4 127.4 393.2C127 393.6 130.6 394 130.2 393.2C129.8 393.2 130.2 392.4 130.6 392.4C131.8 391.2 129.8 394.4 132.2 392.8C131.8 390.4 134.6 390.8 135 390C135 389.6 135.4 389.2 135.8 389.6C135.8 390.4 138.2 388 137.8 388.8C136.6 389.2 139.4 392.4 137.8 390.8C134.6 389.2 136.2 393.2 132.6 393.6C129.8 394.8 131 395.2 129 395.6C127.8 395.2 126.2 397.6 125 397.2C124.6 397.6 121.8 399.6 119.8 399.2C119 398.8 119.8 400.8 119 400C118.2 400 115.8 402 114.6 401.6C113 402 111.4 403.6 110.2 403.6C109 404.8 109.4 403.2 108.6 404.4C105 406 93.8 407.2 91.8 409.2C91 409.6 85.4 412.8 85 412.4C85 413.6 84.6 414 84.2 413.2C83.4 412.4 83.4 412.8 83.4 414C84.2 421.6 77.4 414.8 75.8 418C75 419.6 75 420.4 75.4 421.6C77.4 426 71.8 423.2 74.2 427.2C75 428.8 75 428.8 73.8 428C73 427.2 73 427.2 73 428C72.2 432 79.4 432.8 81.8 434C82.6 434.8 79.4 438.4 80.2 441.2C77.4 445.6 72.6 440.4 78.2 437.6C83.4 434.4 77.8 434.4 76.6 437.6C75.8 436.8 71.4 446 73.8 442.8C74.2 442 74.6 442 74.6 442.8C74.6 444 71 447.2 71 448.8C72.2 455.6 73.4 450.4 74.2 452.4C75.4 455.2 73.8 458.8 77.8 459.6C79.4 460 78.6 461.6 81.4 462C84.6 462.8 85 463.6 82.2 463.6C79 462.8 82.2 465.2 83.4 464.8C85 464.4 85 464.8 85 465.6C84.6 467.2 88.2 463.6 87 465.6C86.2 467.6 95.4 465.6 92.2 467.6C91 468.8 89.8 469.2 90.2 468C91 466 87.8 467.6 88.2 468.4C89 467.6 92.2 471.2 92.6 470C92.6 469.2 92.6 469.2 93.4 470C93 471.2 100.2 470.4 99.4 471.2V471.6C98.2 472.8 103 472 102.6 471.6C102.6 470.8 101.4 472 101 471.2C100.6 469.2 104.2 472.8 104.6 472C104.6 471.6 105 471.6 105.8 471.6C109 471.2 105 470.4 113 470.4C116.2 470 117 470 116.2 471.2C116.2 472.8 132.6 465.2 129.8 466C131.8 465.6 132.2 465.2 135.4 464C137 462 141.8 463.6 140.2 462.8C137.8 461.2 149.8 458.8 148.6 458C147.8 457.2 151 457.2 151.8 456.8C166.6 448.8 174.2 444.8 186.6 436.8C206.2 422.4 211 416 221 392.8C220.2 391.6 223.8 388.4 221.8 392C231.4 382.4 244.6 363.6 224.6 346.8C225.8 344.4 222.6 345.6 223.4 344C224.6 342 221 344.8 222.6 342.4C223 341.6 223.4 341.2 223 341.6C220.2 342.8 212.6 325.6 216.2 338C217.4 338 217.8 340.8 214.6 338.8C213 337.6 214.6 338 214.6 337.2C214.2 336.4 216.6 334.4 213.4 335.2C212.6 335.2 213 333.6 212.2 334.4C211.8 334.4 211.8 335.2 211.8 335.2C211 336.4 211.8 332.4 209.8 330.8C206.6 326.8 209 327.6 212.2 330.8C220.6 335.6 188.6 310.4 183 310.8C182.6 311.2 182.6 309.6 181.8 310C181.8 310.4 181.4 310 181.4 310C151.4 291.2 120.6 299.6 133.8 265.2C135 260.4 135.8 257.2 137.8 253.6C139 252.8 137.4 253.6 138.2 252.4C139 251.6 139 250.4 140.2 250.8C138.6 247.2 140.6 247.6 140.6 246C140.2 245.6 140.6 245.2 141 245.2C142.2 245.2 140.6 242.8 141.8 242.8C143 242.4 143 237.6 144.2 237.2C145 237.2 143.8 235.2 145 235.2C145.8 235.2 145.8 234.8 145.8 234.4C145.4 232.8 148.6 229.6 148.6 228.4C147 228 151.8 222.8 151 222.4C150.6 221.6 153 218.4 152.6 217.6C153.4 217.6 155.4 212.8 156.2 212.8C156.6 212.8 155.8 211.6 156.6 211.6C157.4 210.8 156.2 209.2 157.4 209.2C159 208 159.4 205.2 161 203.2C162.2 199.6 164.6 197.6 166.2 194C172.2 184.4 184.6 166 192.2 158.4C192.2 158.8 195 152.8 196.6 153.6C197.8 152.8 199 150 200.6 150C201.4 148.8 198.6 151.2 200.2 148.4C203.8 143.6 205.4 143.2 208.2 140C209.4 140.8 211.8 134 213 134C216.2 134.8 214.2 131.6 216.2 130C218.2 128.4 219.4 128.8 221.4 126.4C216.2 132.8 224.2 128 221.4 130C219.8 130 217.4 138.4 219.4 136.8C221 136 217.4 138.8 219.4 138.8C219.8 138.8 219.8 138.8 219 138.8C217.8 138.4 217 141.6 217.8 141.2C218.6 140.8 219.8 142 218.2 142C217.8 142 217.4 142.4 217 142.8C217 144 219.8 141.6 218.2 144.4C218.2 144.8 217.4 145.2 217.4 145.2C217 144.4 215.8 146 216.6 146C214.2 169.6 223.4 126.4 224.6 124C227.8 117.2 230.6 122 227.4 125.6C226.2 125.6 226.2 127.6 227.4 127.2C228.6 126.4 226.2 129.6 225.8 129.6C225.4 129.6 225 133.2 225.8 130.8C227 128.4 226.6 133.6 225.8 133.2C225.4 134 225.4 137.6 224.6 138C223 138 224.6 143.2 223 142.8C221.4 142.4 223.8 148 221.8 147.6C221 148 221 148 221.8 148.8C222.6 149.2 222.2 149.2 221.4 149.2C220.2 148.8 219.8 150.8 221 150C221.8 149.2 221 155.2 220.2 154C217.8 153.6 221.8 157.6 218.6 158.4C217 158 221 160.8 218.2 160.4C217 160 217 161.2 217.8 161.6C219 161.6 217.4 165.6 216.6 164.8C215.4 164.8 218.2 168 216.2 168.4C214.6 169.2 213.4 174 215.4 170.4C215.8 168.8 215.8 169.2 215.4 171.2C215.4 174 213 174.8 212.6 176.8C216.6 172 211 185.6 211 187.2C209.8 187.6 210.6 191.6 209.8 190.4C209 190 207.8 191.2 209 191.6C211.8 193.2 205.8 192 208.6 193.6C209 194 206.6 203.2 205.8 203.2C205 202.8 206.2 206.8 205 205.2C204.2 204.4 204.2 204.4 205 205.2C205 208.8 201.4 218.4 201 219.2C200.2 218.4 201 223.6 200.2 223.2C199.4 223.2 200.6 225.2 199.8 225.2C199.4 225.2 199.4 225.6 199.4 226C199.8 226.8 199.4 227.2 199.4 227.2C198.2 227.2 200.2 229.6 198.2 228.8C197.4 232 185 247.6 181.8 251.6C182.2 252 182.2 252.4 181.8 252.8C179 258.4 182.2 261.6 187 261.6C183.8 263.6 190.6 261.6 190.6 263.6C191 264.4 191 264.8 190.6 264.4C189.4 264 191 266.8 189.8 267.2C189 268.4 189.8 270.8 188.2 270.8C187.4 270.8 187.4 271.2 188.2 271.6C188.6 271.6 189 272.4 188.6 272.4C189 272.4 192.6 268 192.2 269.6C192.2 269.6 186.6 280 191 276.8C193 275.2 190.2 279.2 191 279.2C191.8 280 194.2 273.6 194.2 275.6C195 278 193.8 280.4 194.6 282.8C195.4 286.4 197.4 283.6 197 282.4C196.6 282 199 284 199.4 282.8C199.4 282 199.4 282 199 282.4C197.8 282.8 198.2 281.2 199.4 281.6C200.6 281.6 199.4 280.4 200.2 280C200.6 279.6 200.6 279.6 200.6 280C201.4 281.2 203 282 200.6 286C199.4 286.8 201 289.2 201.4 288.4C201.4 287.2 203.8 286 202.6 288.4C202.2 289.6 202.2 291.6 203 290.4C203 290 205.8 286 204.6 288.4C203.8 290.4 205.4 292.8 206.2 291.2C207 290.4 207 290.4 207 291.2C207 293.2 209 287.6 208.6 292C207 296.8 212.6 290.4 212.2 289.6C211.8 289.2 213.4 289.6 213 288.8C219.4 278.8 234.6 254.4 243.4 243.6C249.4 234 273.8 206 277 198.8C274.2 198.8 282.2 195.6 280.2 194.8C277.8 192 283.4 187.6 278.6 188.4ZM249.4 125.6C250.6 124.4 247 122.8 249.4 122C251 121.6 251 120.8 249.4 121.6C248.2 121.6 248.2 121.6 249 120.8C249.8 119.6 251.4 121.2 250.2 119.2C249 118 250.6 119.2 251 118.4C249.8 117.6 251 116.8 251.8 115.6C252.2 116.4 252.6 117.6 253 117.2C253.8 117.2 251 120.8 251.8 120.8C252.6 122 249 123.6 251 124C253 124.8 249.8 126 250.6 127.2C251 128.8 249.4 128 249.8 129.6C250.2 132.4 245.4 128.4 248.2 128.4C248.2 129.2 248.6 129.2 249 128.4C251 127.6 247 126 248.2 125.2C249 124.4 248.6 127.2 249.4 125.6ZM169.8 380.4C167.4 381.6 165.8 384.8 165 382C163.8 381.6 165 385.2 163.8 384.4C160.6 382.4 162.6 386 161 386C160.2 386 160.2 386 160.2 385.2C161.4 383.6 157.4 387.6 156.6 387.2C155.8 386.8 153 390.8 156.6 388C156.6 389.2 155 390.4 154.6 389.6C154.2 388 151 392.4 149.8 391.6C149 391.2 147.8 393.2 149 392.4C149.4 392 149.8 392 149.4 392.4C149 393.6 146.2 392 146.2 394C146.2 395.2 146.2 395.2 145.8 394.4C144.2 393.2 143.4 396.4 142.2 395.2C141.8 394.4 141.4 394.4 141 395.2C140.6 395.6 140.6 395.6 141 395.6C141.4 394.8 144.2 398.8 142.6 397.2C139.4 395.2 140.6 399.2 138.6 397.2C136.6 395.2 137.4 400.4 133.8 400C132.6 400 132.2 400 132.2 400.8C132.2 400.8 131.8 401.2 131 401.2C129.4 400.8 129 401.6 129.8 402C131 402.8 127 402.4 127.4 402C127.4 401.6 126.2 402 126.6 402.8C126.2 406 121.8 400.4 119.8 404.4C119.8 404.8 119.4 404.8 119.4 404.4C119 403.6 117.4 405.6 117.8 406.4C118.6 408.4 116.2 404.4 115.8 405.6C115 405.6 118.2 409.2 115.8 407.2C115 406.4 114.2 406 114.2 406.4C111.8 408 106.6 409.2 103.8 410.4C101 412.8 103.4 408.4 101.4 410.4C101 412 93.4 412.4 92.6 411.6C93 411.2 92.6 411.2 92.2 410.8C91 410.4 95 408.4 94.2 410C94.2 410.4 94.6 410.8 95 410.4C96.2 410 94.6 408.8 96.2 409.2C97.4 410 96.2 408.4 96.6 408.4C97.8 408.4 98.2 410 99 409.2C99.8 408 101 410 100.2 408C100.2 407.2 100.2 407.2 101 407.6C101.8 408.4 103.8 408.4 103 407.6C102.2 406.4 105.4 407.6 105.8 406.4C107.4 405.6 108.6 404.8 106.6 407.2C107.4 407.6 112.2 404.4 113 404.8C113.8 404.8 113 403.2 114.2 403.2C115 402.8 115.4 403.2 115 403.6C115 404.4 115 404.4 115.4 404C115.8 403.6 115.8 403.2 115.8 402.8C115.4 402 119 400.8 117.8 402C117.8 402.4 118.2 402.8 119 402.4C123 400.8 117.4 402 119.4 401.2C120.6 400 121.8 402 122.6 400.8C122.6 400.4 122.6 400.4 122.2 400.8C121 401.6 122.6 398.8 123.4 400.4C124.2 401.2 124.2 401.2 123.8 400C122.6 398 125.8 400 125.4 399.2C125.4 398.8 126.2 398.4 127.4 398.4C127.8 397.6 130.2 395.6 131.4 396.4C131.8 397.6 133.4 395.6 132.2 396C131.8 396.4 131.4 396.4 131.4 396C131.4 394.8 135.4 394.4 135.8 393.6C135.4 393.6 140.6 390.8 138.6 392.8C136.6 394.8 140.6 391.6 140.2 391.6C139.4 390.4 142.2 391.6 142.2 390.4C145 388.4 152.6 387.2 154.6 385.2C154.2 384 157.4 385.6 156.6 384C156.6 383.2 159.4 383.2 159 382.4C159 381.2 162.2 383.2 161.4 381.2C159.8 381.2 173.4 374.8 173.4 374.4C174.6 374.4 189.4 362.8 183 370C178.2 374.8 173 377.6 169.8 380.4ZM223 383.6C222.2 385.2 220.6 386.8 220.2 387.6C219 388 219 388 220.2 386.8C223 378.8 233 367.2 223 383.6ZM133.8 105.2C135.8 102.8 136.6 102 137.8 100.4C137.4 98.8 140.6 98.8 140.6 98.4C141 96.4 143.4 92 146.2 91.6C145.8 92.4 142.6 96 142.6 97.6C143 98 139.4 100.4 140.2 101.2C140.2 101.6 140.2 101.6 139.8 101.2C139.4 100.8 138.6 102 139.4 102.4C140.2 104.8 133.4 103.2 136.2 104.8C137 105.6 137.4 106 136.6 105.6C135 105.2 136.6 108.4 135 106C133.8 104 133.4 106.8 134.6 107.6C136.2 110.8 129 109.2 133.8 105.2ZM160.2 88.8C161.8 88 159 91.2 158.2 90C156.6 89.2 159.8 92 157.8 92.4C157.4 92.8 157 93.6 157.4 94C157.4 94.4 157.4 94.4 157 94.4C155.8 93.6 158.2 92 157 91.6C156.2 91.6 155.8 94.8 154.2 94.8C153.4 94.8 153.4 95.2 153.4 95.6C154.2 96.4 149.4 100 151.8 98.8C153 98.4 153 98.4 151.8 99.6C150.2 100.4 151.4 102 149.8 101.2C148.6 100.8 149.8 100 149 99.6C147.4 99.2 149.8 102 149 102.8C148.6 103.2 148.6 103.6 148.6 104C149 104.8 146.6 103.2 147 104.4C147.4 105.6 144.6 105.6 147 104C147.8 103.2 148.2 102.8 147.8 102.8C146.2 102.8 144.6 105.6 144.2 106.8C143.4 106.8 139.8 109.6 141.8 109.6C142.6 108.8 143.4 110.8 142.2 111.6C141.4 112 143 108.4 139.8 111.2C139.4 112.4 137.8 111.2 138.2 112.4C139.4 115.2 135.8 114.4 136.2 115.2C136.6 116 133.8 120.4 133 120C124.6 127.2 151.8 94.8 153 93.2C154.2 93.6 156.6 89.2 157.4 90C158.2 90 158.2 90 157.8 90C156.6 88 159.4 87.6 159.8 86.8C160.2 84 163.4 87.6 160.6 88.8C159.8 88.8 159.4 89.2 160.2 88.8Z" fill="#81c687"/>
<path d="M331.931 30.4C330.731 30.4 331.131 32 330.731 34C329.931 34 331.931 32 331.131 32C330.331 32 333.931 30 331.931 30.4ZM315.531 82.4C314.331 79.6 317.531 82.4 317.531 81.6C317.131 80.8 318.331 80.4 317.531 80.4C313.531 80.4 319.531 76.8 319.531 76C318.331 75.2 315.531 77.6 318.731 74C321.131 70.4 328.731 41.2 327.131 54.4C327.931 55.2 329.931 52 328.731 51.2C328.731 51.6 327.931 50.8 327.931 50.4C327.531 48.8 329.531 48.8 329.131 47.6C329.531 45.6 335.531 48 329.531 44.4C328.731 42.4 332.731 46.4 331.531 44.4C331.531 43.6 331.531 43.2 332.331 43.6C333.531 44 333.531 44 332.731 42.8C332.331 41.6 329.931 42.8 330.331 41.2C331.531 40 332.331 41.6 332.731 38C332.731 36 331.531 36 333.931 32.8C335.131 30.8 332.731 30 331.931 32.4C331.531 34 328.331 35.6 330.731 33.2C330.331 34.4 329.131 35.6 329.931 35.6C330.731 35.6 327.531 38.8 327.931 39.6C330.731 38 327.131 41.6 327.531 42.8C327.931 43.6 326.331 43.2 326.731 44C323.131 54.8 316.731 73.6 313.131 85.2C313.131 87.2 314.331 85.6 314.731 83.6C314.731 81.2 316.331 86 315.531 82.4ZM324.331 326C318.731 332 362.731 304.8 357.531 305.6C350.331 310.8 336.331 319.2 325.931 325.6C325.531 326 324.331 325.2 324.331 326ZM255.931 329.6C255.131 330.4 257.531 335.6 257.531 338V337.6C257.531 334.4 255.931 331.6 256.331 328.4C256.331 328.8 256.731 329.6 255.931 329.6ZM282.731 338.8C283.131 337.6 282.731 337.6 282.731 337.2C282.731 337.2 282.731 336.8 282.731 337.2C280.331 339.6 281.531 341.2 282.731 338.8ZM425.531 308.8C424.331 310.8 422.331 311.2 423.531 309.2C425.131 308.4 427.931 304 425.131 304.4C425.131 306.4 420.331 311.2 419.531 311.6C418.731 311.6 418.731 312 418.731 312C418.731 314.4 415.931 313.2 418.731 311.2C420.331 309.6 420.731 307.2 421.131 306C421.531 305.2 418.731 306.4 418.731 305.6C418.731 305.2 419.131 304.8 419.531 304.8C420.331 305.2 419.931 302.8 420.731 303.2C422.731 303.2 419.531 300.8 421.131 298.8C425.131 294 416.731 297.6 418.731 296C420.331 295.6 419.931 292.4 418.331 294.4C416.331 296.8 418.731 289.6 415.131 292.8C409.131 296.8 414.731 283.2 412.331 284C411.531 282.8 412.731 282 411.531 282C410.331 281.6 411.931 279.6 411.131 278.4C410.331 275.6 409.531 281.2 410.331 281.6C411.131 282 409.531 284 410.731 284.4C411.131 284.4 411.131 284.8 411.131 285.6C410.331 287.6 409.531 284 409.531 283.2C410.331 280.4 406.731 284 408.731 284.8C410.331 286.4 406.331 292.4 406.331 291.2C405.931 290.4 404.731 294.8 405.131 291.2C404.731 288.4 409.531 285.6 407.531 284.4C407.131 284 406.731 284.4 406.731 284.8C406.331 286.4 403.531 287.6 405.531 284.4C406.331 282.8 404.331 282 405.531 280C407.531 277.2 401.131 271.6 402.731 274.4C402.731 275.6 401.131 279.6 400.731 279.6C400.731 278.8 403.531 273.6 399.931 277.2C390.731 286.4 369.931 304.4 358.731 311.2C357.931 313.6 356.331 310.4 358.731 310C360.731 309.2 363.531 306.4 364.731 306.4C364.331 304.4 377.531 298 374.331 296.8C373.131 296.8 373.531 298.4 372.731 298C371.131 297.2 373.531 299.6 371.931 298.8C371.131 297.6 367.131 304.4 368.731 301.2C369.931 297.6 367.131 303.6 365.931 303.2C365.131 302.8 365.131 304.4 364.331 304.4C361.531 304 363.531 305.6 361.531 306C360.331 305.6 362.731 308 360.331 307.2C358.331 306.4 359.931 308 357.931 308.8C355.931 310.8 354.331 309.6 353.931 311.2C354.331 312 348.731 314 349.531 314.4C349.531 314.8 347.131 314.4 347.531 315.6C347.531 316 347.531 316.4 346.731 316C346.731 315.6 343.131 317.6 344.331 317.2C344.731 316.8 345.131 316.8 344.731 317.6C344.731 318.4 342.731 318 342.731 319.2C342.731 320 341.131 318.8 341.131 319.6C341.131 320 341.131 320 340.331 319.6C339.931 319.2 339.131 321.6 338.331 321.2C336.331 320.4 335.931 323.2 335.131 322.8C333.131 322 335.531 324.4 333.531 323.6C331.931 322.4 334.331 325.2 332.731 324.4C331.931 323.6 327.931 326 328.731 326.8C329.531 327.6 327.131 326 327.531 327.2C327.531 327.6 327.131 327.6 327.131 327.6C326.331 326.8 324.731 328.8 323.931 328.8C321.931 329.2 321.531 329.2 322.331 330C322.731 330.4 311.931 333.6 312.331 334.4C312.331 335.6 310.331 336.4 310.331 335.6C310.331 334.4 303.931 339.2 304.331 338.4C304.731 336.4 299.531 338 298.731 338C298.331 337.6 297.931 338 297.931 338.4C297.931 339.2 296.731 338 295.931 339.2C293.531 340 292.331 340 289.531 340.8C287.531 341.6 289.131 340.4 287.931 339.2C286.731 338.8 286.731 338.8 287.531 340C287.931 341.6 284.731 341.2 282.731 341.2C278.331 341.6 282.731 333.2 282.731 337.2C282.331 336.4 281.931 335.2 282.331 334C283.131 331.2 283.531 329.2 285.531 333.2C285.531 331.2 282.731 324 285.931 328.8C286.731 328.4 286.731 328 285.931 327.6C283.931 324.8 287.931 320.4 287.931 317.2C289.131 315.6 292.331 300.4 293.131 305.6C292.331 306.4 293.531 307.2 293.931 306C294.331 305.2 291.931 300.4 293.931 300.4C294.731 300.4 293.931 306.4 295.131 302.8C295.531 300.8 293.131 297.2 295.131 296C295.931 295.2 298.731 281.6 299.531 286.4C298.731 289.6 301.531 287.6 299.931 285.6C298.731 282.8 299.931 279.2 302.731 276.4C307.131 274 301.531 274 303.531 271.2C304.731 268 305.131 267.2 305.131 266C311.931 260.4 305.931 257.6 309.931 254.8C311.931 253.6 313.931 250.8 312.331 250.8C311.131 251.2 310.731 255.6 309.131 254C309.131 253.6 309.131 253.2 309.531 253.2C310.331 253.2 309.931 250 311.131 250C311.931 250 311.931 244.4 312.731 244.4C313.131 243.2 314.331 241.2 314.331 240C314.331 237.2 316.331 240 314.731 242.4C314.331 243.2 314.331 243.6 315.131 243.6C317.531 243.6 314.731 238 315.531 236.8C315.931 236.4 315.531 234 316.731 234C317.531 233.6 316.331 238 317.531 237.2C318.331 237.2 318.331 237.2 318.731 238C318.731 239.6 320.331 234.8 320.331 234.4C319.931 233.2 321.131 234 321.131 232C321.131 230.8 321.131 230.4 320.331 231.2C319.531 232.8 321.131 228.8 319.931 229.2C318.731 229.6 319.531 235.2 318.731 236C318.331 236.4 317.931 236.4 317.931 235.2C318.331 234 315.931 232 317.131 232C318.331 228 320.731 228.8 320.331 227.2C319.531 225.6 320.331 222 321.131 222C322.331 221.6 321.131 228.4 322.331 224.8C323.131 222 323.131 227.6 321.931 226.8C321.131 226.8 321.131 230.4 322.331 230.8C324.331 228.8 316.731 248.4 317.531 248C318.331 248.4 319.931 241.2 321.131 242C322.331 242.8 323.131 236.8 323.931 236.8C323.931 238 325.931 228.8 323.931 232.4C323.131 233.6 323.131 233.6 323.531 232C323.531 230.4 325.531 230.4 325.131 229.2C325.931 228.4 327.131 229.6 327.131 226.8C327.531 224.8 327.931 224 328.731 224.4C329.931 224.8 326.731 222.4 328.731 222.4C329.531 222 329.931 217.6 331.131 217.2C331.531 217.2 331.531 217.2 330.731 216.8C328.731 215.6 333.131 215.6 331.531 214.8C330.731 214.4 330.731 214 331.531 213.6C332.731 212.8 333.131 209.2 334.331 208.8C335.131 208.8 333.531 206.8 334.731 206.8C335.131 206.8 335.531 206.8 335.531 206C335.531 205.6 335.131 205.6 335.131 206C334.331 206.4 334.331 204.4 335.131 204C335.531 203.6 335.531 203.6 335.131 204C335.531 207.2 337.131 201.2 337.531 201.2C339.931 199.2 329.531 220.8 329.931 224.4C332.331 220 335.131 212.4 337.131 206.8C338.331 202.4 342.731 195.6 343.131 192C342.331 191.2 342.331 191.2 343.131 191.2C343.931 191.2 343.531 188 344.731 188C345.531 188 344.331 186 345.131 186C345.931 186.4 344.731 183.6 345.531 184.4C347.931 182.4 369.131 128.4 362.731 149.2C361.931 149.2 359.531 154.8 360.331 156C361.131 157.2 358.731 154.8 359.531 156.8C360.331 158.4 357.931 156.4 358.731 158C359.531 159.6 357.931 158 358.331 159.2C358.731 160.4 357.131 162.8 357.531 163.2C360.731 161.2 368.331 140.4 373.531 132.4C374.331 132.8 372.731 130 373.931 131.2C374.731 132 374.731 126.4 376.331 127.2C376.331 127.2 377.931 119.6 379.531 118.8C379.131 121.6 375.931 126.4 380.731 119.6C382.731 116.4 383.131 116 381.931 115.2C379.531 114 390.731 96.8 388.731 102C387.531 102.8 387.931 104.8 386.731 105.2C385.931 105.6 387.131 107.2 385.931 107.2C385.531 106.8 385.131 111.6 383.531 111.6C382.731 112.4 384.731 114.8 385.931 112.4C387.131 107.6 395.131 99.6 392.731 94.4C392.331 94.4 390.731 96.4 391.131 97.2C391.531 97.6 389.531 98.4 389.931 97.2C389.531 93.6 387.131 94.4 389.131 88.8C389.531 88 389.131 88 388.331 88C386.331 88.8 389.531 86.4 387.931 85.2C386.731 83.2 387.931 82 386.331 80.8C385.531 80.4 385.131 79.6 385.131 79.6C385.931 78.8 382.331 77.6 382.731 76.8C379.531 80.8 373.931 97.2 374.331 89.6C375.131 88.4 375.531 88 374.731 87.2C373.531 86 376.731 80.8 374.331 81.2C373.531 81.2 373.931 83.2 373.531 82.8C372.331 82 374.331 80.8 373.531 80C372.331 79.6 376.731 73.6 376.331 73.2C375.531 72 371.931 78.8 371.131 78.8C373.131 74.8 373.131 67.6 369.931 75.6C369.531 76 369.531 76.8 369.531 76.8C369.931 77.6 366.331 79.6 366.731 80C364.331 89.2 365.531 74 368.331 76.8C369.531 77.6 369.531 77.6 368.331 76.4C365.931 74.8 371.131 71.2 368.331 71.2C366.331 71.2 369.931 64.8 367.931 66.4C367.131 66.4 367.131 66.4 367.131 65.2C367.931 62.8 371.131 66 367.131 62C363.531 60.8 367.531 57.2 365.531 57.2C365.131 57.6 365.131 57.6 365.131 56.8C365.931 55.2 363.531 57.2 365.131 58C366.331 59.2 363.531 58.4 363.531 59.2C360.731 65.6 361.931 54.4 359.531 60.8C355.131 59.2 369.931 40.4 361.931 43.6C361.531 43.2 361.931 42.8 362.331 43.2C363.131 43.6 361.931 40.8 361.531 42C358.731 44.4 359.931 40.8 359.131 41.2C357.931 41.2 358.731 44 357.931 43.2C355.131 42 360.331 34 356.731 35.6C355.131 37.2 356.331 34 355.131 34C354.731 33.6 354.731 33.6 355.131 34C355.931 34.8 352.731 37.6 353.931 35.6C354.331 32.4 349.131 36.4 347.531 36.4C344.731 34 349.531 30 345.531 27.2C343.931 26 343.931 26.4 343.131 28C342.731 28.8 341.931 29.2 341.931 29.2C343.131 20.8 336.331 39.2 335.131 41.6C333.931 46 327.931 56.8 329.531 59.2C324.731 59.2 329.931 66.4 327.931 64.4C325.131 61.6 324.331 74.8 323.931 74C323.931 73.2 323.131 73.2 323.131 73.6C322.331 74 323.531 76 322.731 75.2C321.531 74 323.131 82 321.931 78.8C321.131 76 321.131 80.4 321.131 80.4C319.931 80.8 321.131 84.4 320.331 84C319.531 83.6 319.531 83.6 319.531 84.4C319.531 85.2 318.331 84 317.531 85.2C316.731 86 318.731 84.8 318.731 86C319.531 87.2 318.331 86 317.931 87.2C317.531 88 317.931 88 318.331 88C318.731 87.2 318.731 90.4 318.331 90C316.731 88.8 317.131 95.6 315.931 94C315.531 92.8 315.531 93.6 315.931 95.2C317.531 97.2 314.331 95.6 314.731 98.4C314.731 99.6 314.731 100 314.331 99.2C313.931 98.4 313.931 99.2 313.931 100.8C315.131 104 311.131 104 313.131 106.4C314.331 106.8 314.731 108 313.931 108C311.131 107.6 312.731 108.8 311.931 109.2C311.131 109.2 311.131 109.6 311.531 110.4C311.931 111.6 310.331 109.6 311.131 111.6C311.931 114.4 308.731 117.2 308.331 119.6C308.331 122 307.131 126.8 305.131 128.4C304.731 128.4 307.531 130.4 305.531 131.2C302.331 134.8 306.331 134.8 304.731 135.6C303.531 136 304.331 137.6 303.531 137.6C302.331 139.2 303.131 141.6 301.531 144C299.931 146 299.131 148.8 298.731 150.8C297.531 150.8 298.731 152.8 297.931 152.8C296.731 152 299.531 157.2 297.931 155.2C297.131 154.4 297.131 154.8 297.131 156C295.531 161.6 296.731 169.6 293.931 176C293.531 178.8 280.731 219.6 286.331 204.4C286.731 206.8 284.731 214.4 283.131 214.4C281.931 212.4 284.331 222 281.131 221.6C275.131 258.4 259.531 296.8 257.131 328.8C257.131 328.8 257.531 328.8 257.131 328.4C256.731 326.8 256.731 326.4 257.531 326.8C258.731 325.2 258.731 321.2 259.131 319.6C259.531 316.4 261.931 312 261.531 308C261.131 305.6 263.131 308.4 262.331 306C261.931 304.4 263.531 305.2 263.131 303.6C262.331 302.4 264.731 301.6 263.531 300.8C263.131 300.8 263.131 300.4 263.131 299.6C263.131 298.4 265.131 300 264.331 298.8C263.531 297.2 265.531 296.8 264.731 295.2C264.331 293.2 265.931 294.4 265.131 292.4C264.731 291.2 266.331 291.6 265.931 290.4C265.931 289.6 265.931 289.2 266.331 289.2C267.131 288.8 265.931 286 267.131 286.4C267.931 286.4 266.731 284 267.931 284C267.931 284 268.331 283.6 267.931 282.8C267.131 280.8 269.131 281.6 268.731 280C268.731 279.6 268.731 279.2 269.131 279.2C269.931 279.2 268.731 275.6 269.931 275.6C269.931 275.6 270.331 275.6 269.931 275.2C270.331 274 271.531 269.6 271.931 268.8C273.131 268.4 269.931 266.8 271.931 266.4C273.531 266 271.931 264 273.131 263.6C273.931 263.6 272.731 260.8 273.931 261.2C274.731 260.4 273.531 258.4 274.731 256.8C275.931 254.8 276.331 254.4 275.131 254.8C274.731 255.2 274.731 254.8 274.731 254.4C275.131 253.2 276.331 253.6 275.931 252.4C275.131 251.2 277.531 252 276.331 250.8C275.531 250 276.731 246.8 277.531 249.6C278.331 251.2 278.331 251.2 278.331 250C277.931 248.4 279.531 248.8 279.131 247.6C278.731 246.4 281.131 242.8 280.331 241.6C280.331 240.8 280.331 240.4 281.131 241.2C282.731 242.4 282.731 240.8 281.531 240.4C280.731 239.2 282.731 234 283.131 232C284.731 231.2 283.131 229.2 284.331 228.8C284.731 228.8 284.731 228.4 284.731 227.6C283.131 225.6 287.131 228 285.931 226.4C284.731 225.6 284.731 223.6 285.531 224C286.331 224.8 285.531 222.4 285.931 222C287.131 222 285.531 219.2 286.731 219.2C287.531 219.2 287.531 218.8 287.531 218C287.131 216.4 289.931 213.2 289.131 210.8C288.331 208.8 290.331 211.2 290.331 209.2C290.331 208.4 290.331 208 290.731 208C291.531 208.8 290.331 204 291.531 204C293.131 201.6 295.131 195.2 296.331 192.8C290.731 214.4 283.931 240.4 279.131 259.6C278.331 260.4 279.931 262.4 278.731 262C277.931 261.2 277.131 264.8 277.531 266.4C277.931 267.2 277.931 267.2 277.531 267.2C276.731 266.8 275.931 270 276.331 271.6C276.731 272.4 276.731 272.8 276.331 272.4C275.131 270.4 275.531 276.4 274.731 277.2C273.531 276.4 274.331 282 273.531 282.4C272.731 282 271.931 284.8 272.331 286C271.531 286.4 271.131 292.4 270.731 292.4C269.131 290.8 270.731 297.6 269.931 298C266.331 302.8 263.531 324 260.331 333.6C259.931 334.8 259.531 337.2 258.731 338.8C259.531 363.2 268.331 384.4 303.131 395.2C313.931 395.6 314.331 395.6 318.331 394.4C316.731 393.2 321.531 394.8 321.131 393.6C321.131 393.6 321.531 393.2 322.731 393.6C325.931 394.4 321.131 392 324.331 392.8C325.931 393.6 326.331 390.4 327.531 392C328.331 393.2 329.131 390.4 330.731 390.8C331.531 391.2 331.931 390.8 331.531 390.4C330.731 389.6 333.931 390.8 333.531 390.4C332.731 389.2 341.931 386.4 341.931 386.4C343.131 384 367.931 372 355.131 376.8C354.731 376.4 355.131 378.4 354.331 377.6C337.131 385.6 311.131 400 293.931 388.8C303.531 387.2 321.531 387.6 329.531 384C333.531 383.2 341.131 379.6 345.531 378.4C351.131 374.4 369.131 365.2 375.931 360.4C384.331 355.6 395.131 347.2 402.731 340.8C401.931 342 411.531 332.8 412.731 332.4C412.731 331.6 413.131 331.2 413.131 331.6C414.731 331.6 412.331 328.8 414.331 330C401.131 341.2 376.331 358.4 351.931 370.8C339.931 376 380.331 353.2 362.731 364.8C358.331 368.4 375.131 358 374.731 357.6C373.931 357.6 369.531 360.4 369.131 360.8C368.331 362.4 367.531 359.6 366.331 360.4C365.531 359.6 373.531 358.4 376.331 354.8C379.531 352 376.331 356.8 375.531 357.6C382.731 348.4 392.731 345.2 385.131 350C380.331 355.2 400.731 339.2 399.931 339.6C400.731 338 388.731 348 395.531 341.2C397.531 340 401.531 335.6 401.131 338C400.731 339.2 401.131 339.2 402.731 337.2C403.531 336.4 403.931 336 403.531 336.4C398.731 339.2 406.731 333.2 404.731 332.8C403.931 332 403.931 332 404.731 332.8C405.531 333.2 406.331 333.2 406.331 332.8C409.931 330.4 404.331 335.2 404.731 335.6C410.331 331.6 415.931 322.8 421.131 319.2C421.931 318.4 427.131 313.2 427.531 311.2C427.131 310.4 428.731 310.8 428.331 310C429.131 307.2 428.331 306.4 425.531 308.8ZM334.331 188C335.531 188.4 335.531 188.4 334.731 187.6C334.331 185.6 342.731 166.4 345.931 157.2C345.931 157.2 346.331 156.8 346.731 156.8C347.531 156.8 346.331 155.6 347.131 155.6C348.331 155.6 346.731 154.4 347.531 154.4C348.731 153.6 350.331 147.2 351.931 149.6C352.331 150 351.931 150 351.531 150C349.931 150 353.531 152.8 351.131 151.6C349.531 150.8 351.531 152.8 350.331 152.8C349.531 152.8 349.531 152.8 350.331 153.2C351.931 154 347.531 154.4 348.731 155.2C349.531 155.6 349.531 155.6 348.731 156.4C347.531 156.4 348.731 158.4 347.531 158.4C346.731 157.6 346.331 160.4 345.531 160.4C345.131 162.4 343.931 166 342.731 167.6C343.131 166.4 339.131 177.2 339.931 178.4C338.331 180 337.531 184.4 336.331 187.2C336.331 188.4 334.331 192.8 333.531 194C335.531 190.4 332.331 187.2 334.331 188ZM322.731 228.4C323.131 226.8 324.331 222.4 325.131 221.2C324.731 220.8 326.731 219.2 325.931 218.8C325.131 218.8 325.131 216.4 325.531 217.6C327.131 220 326.331 216 327.531 216.4C328.331 216.4 328.731 211.6 329.931 212.4C330.731 212.8 327.131 218.8 327.131 219.2C327.931 221.2 325.131 223.2 325.531 224.4C326.331 226.4 324.331 224.4 324.731 225.6C325.131 226.4 323.931 231.2 322.331 230C320.731 229.6 323.531 228.4 322.731 228.4ZM282.331 226.8C280.731 230.8 281.131 225.2 285.531 212C287.931 206 286.731 204 288.331 200.8C289.531 205.6 283.131 220.8 282.331 226.8ZM285.531 254.8C288.731 241.6 292.731 226 296.731 213.2C298.731 206.8 307.931 174.4 306.331 186.8C306.331 189.6 303.131 194.8 304.731 196.8C305.931 197.6 305.931 198 304.731 197.6C301.931 197.6 303.531 198.8 304.331 199.6C304.331 200.8 301.531 198.8 302.731 200.4C304.331 201.2 301.531 209.2 300.731 206.8C300.731 206 300.331 206 300.331 206.8C303.931 211.2 297.931 207.6 300.331 210.4C300.731 210.8 301.531 212.4 300.331 211.6C299.131 211.2 297.131 216 299.531 214.8C301.931 212.8 295.131 225.6 296.331 224.8C297.131 224.8 296.331 229.6 295.931 229.6C295.131 229.6 294.331 226.8 294.731 228.8C294.731 230 294.731 230.8 294.331 230.8C293.131 231.2 295.931 232.8 293.931 233.2C292.731 233.2 295.131 236.4 292.331 237.2C291.131 236.8 292.331 240.8 291.531 240.4C290.731 240.4 293.931 243.2 291.531 242.4C289.531 241.2 291.531 244.4 290.731 244.4C290.331 244.4 288.731 249.2 290.331 248.4C290.731 248.4 290.731 248.4 290.731 249.2C290.331 249.6 289.931 250 289.531 250C288.331 249.2 290.331 253.6 289.131 252.4C288.331 250.8 287.931 254.8 288.331 254.4C288.731 254 288.731 254.8 288.731 255.6C285.131 262.4 283.931 269.6 280.331 278.8C277.131 283.6 285.931 257.6 285.531 254.8ZM323.931 382.8C311.931 386.4 301.931 386 317.531 383.2C322.331 382.4 322.331 380.8 325.131 379.2C328.731 377.2 328.731 378.8 327.131 379.2C326.731 379.2 326.331 379.6 326.731 380C326.731 380.4 326.731 380.4 325.931 380.4C324.331 380 323.531 382 326.331 380.8C328.331 380.8 328.731 379.2 329.531 379.6C329.931 379.6 329.931 379.6 329.931 379.2C329.931 378.4 331.531 379.6 331.531 378.4C332.331 377.6 337.131 378.4 336.731 376.4C336.731 376.4 337.531 376 337.931 376C333.531 378 328.331 382 323.931 382.8ZM349.531 317.6C345.931 320 339.931 323.2 336.731 325.6C336.731 327.2 331.931 325.2 333.931 327.2C335.931 329.6 331.531 325.2 332.731 327.6C333.931 328.8 327.531 330 327.131 330C325.931 329.6 327.931 332.8 326.331 331.2C324.331 330 326.731 333.2 322.731 332.4C307.531 339.6 342.731 320.4 341.931 321.2C341.931 319.6 346.331 319.2 346.731 318.8C347.531 315.6 357.531 312.8 349.531 317.6ZM391.931 340.8C387.131 344 387.931 344 382.331 347.6C360.331 361.6 405.531 328.8 391.931 340.8ZM311.531 270.8C312.331 270.8 311.931 267.2 312.731 268C313.931 267.2 313.531 261.6 314.731 262C315.531 262 315.131 258.4 315.931 258.4C317.531 258 314.331 258 314.731 258.4C314.331 258.8 310.331 273.2 308.331 272.8C308.331 276 310.331 274.4 310.731 272.4C310.731 271.6 311.131 270.8 311.531 270.8ZM297.131 310C297.131 308.8 298.731 310.4 298.331 309.2C297.531 308.4 298.731 305.2 299.531 305.6C299.531 306 299.931 305.6 299.531 305.6C299.131 304.8 300.731 298.8 301.531 298C303.931 290.4 307.531 282.8 309.131 276C308.731 275.6 308.331 275.6 308.331 275.6C302.731 292 300.731 298 295.931 311.6C296.731 312 297.131 310.8 297.131 310Z" fill="#81c687"/>
</svg>
